#N canvas 825 240 645 608 10;
#X obj 47 71 inlet;
#X obj 103 200 f 0;
#X obj 143 240 + 1;
#X obj 93 242 t b f;
#X obj 90 265 spigot;
#X obj 84 327 outlet;
#X obj 212 84 inlet;
#X text 199 291 count up to max number of iterations then send bang
;
#X obj 118 84 inlet;
#X text 126 50 next value;
#X text 235 58 limit;
#X obj 70 129 t b;
#X obj 141 264 > \$1;
#X obj 152 378 print stop_runaway;
#X msg 168 343 reached limit;
#X connect 0 0 11 0;
#X connect 1 0 2 0;
#X connect 1 0 3 0;
#X connect 2 0 1 1;
#X connect 3 0 4 0;
#X connect 3 1 12 0;
#X connect 4 0 5 0;
#X connect 4 0 14 0;
#X connect 6 0 12 1;
#X connect 8 0 1 1;
#X connect 11 0 1 0;
#X connect 12 0 4 1;
#X connect 14 0 13 0;
