#N canvas 253 395 818 588 10;
#X obj 346 27 inlet;
#X obj 475 313 outlet;
#X obj 186 151 pack s;
#X msg 188 181 open \$1;
#X msg 138 161 rewind;
#X obj 57 161 until;
#X msg 57 182 next;
#X obj 135 249 route file;
#X obj 135 270 symbol;
#X obj 135 291 simplescani rec-;
#X obj 133 322 max 0;
#X obj 133 343 f 0;
#X obj 346 106 f 0;
#X obj 384 128 + 1;
#X obj 479 212 pack f s;
#X obj 473 272 pack s;
#X msg 472 245 \$2/rec-\$1.wav;
#X obj 347 68 t b;
#X obj 498 129 loadbang;
#X obj 498 150 symbol \$1;
#X obj 132 28 loadbang;
#X obj 133 48 symbol \$1;
#X text 241 292 parse number from filename;
#X text 230 224 read filenames in recording dir;
#X text 180 323 get highest current recording #;
#X text 399 101 increment recording #;
#X obj 116 222 readdir_organelle;
#X obj 95 101 t b b b s;
#X msg 33 95 0;
#X obj 0 128 stop_runaway 1000;
#X connect 0 0 17 0;
#X connect 2 0 3 0;
#X connect 3 0 26 0;
#X connect 4 0 26 0;
#X connect 5 0 6 0;
#X connect 6 0 26 0;
#X connect 6 0 29 0;
#X connect 7 0 8 0;
#X connect 8 0 9 0;
#X connect 9 0 10 0;
#X connect 10 0 11 0;
#X connect 11 0 10 1;
#X connect 11 0 12 1;
#X connect 12 0 13 0;
#X connect 13 0 14 0;
#X connect 13 0 12 1;
#X connect 14 0 16 0;
#X connect 15 0 1 0;
#X connect 16 0 15 0;
#X connect 17 0 12 0;
#X connect 18 0 19 0;
#X connect 19 0 14 1;
#X connect 20 0 21 0;
#X connect 21 0 27 0;
#X connect 26 0 7 0;
#X connect 26 1 5 1;
#X connect 27 0 5 0;
#X connect 27 1 28 0;
#X connect 27 2 4 0;
#X connect 27 3 2 0;
#X connect 28 0 29 1;
#X connect 29 0 5 1;
