#N canvas 364 77 1249 852 10;
#X obj 411 185 catch~ rbOutL;
#X obj 470 161 catch~ rbOutR;
#X obj 417 252 writesf~ 2;
#X obj 134 304 print;
#X obj 132 73 route start stop;
#X msg 128 323 open \$1;
#X msg 106 258 start;
#X msg 265 130 stop;
#X obj 134 283 dtfilename \$1;
#X obj 781 313 metro 500;
#X obj 780 289 bng 15 250 50 0 empty empty empty 17 7 0 10 -262144
-1 -1;
#X obj 781 348 tgl 15 0 empty empty empty 17 7 0 10 -262144 -1 -1 0
1;
#X msg 832 280 stop;
#X msg 883 297 0;
#X obj 797 399 route 0 1;
#X obj 252 512 delay \$2;
#X obj 220 98 t b b, f 9;
#X msg 147 471 stop;
#X obj 274 475 t b;
#X msg 741 430 \; oscOut /oled/gFilledCircle 3 124 12 2 1;
#X msg 742 468 \; oscOut /oled/gFilledCircle 3 124 12 2 0;
#X obj 113 168 t b b b;
#X obj 436 427 print;
#X obj 434 553 print;
#X obj 219 156 s rb-recordingDidStop;
#X obj 106 204 s rb-recordingDidStart;
#X obj 133 43 r rb-RecControl;
#X obj 114 450 r rb-recordingDidStop;
#X obj 276 448 r rb-recordingDidStart;
#X obj 436 385 r rb-recordingDidStart;
#X obj 433 500 r rb-recordingDidStop;
#X obj 689 255 r rb-recordingDidStart;
#X obj 832 255 r rb-recordingDidStop;
#X msg 436 406 !!Recording Started!!;
#X msg 432 526 !!Recording Ended!!;
#X text 683 227 flashing indicator;
#X obj 250 572 s \$0-autoStop;
#X obj 256 539 t b;
#X obj 331 41 hidsr;
#X obj 709 534 r hidsrin-1;
#X obj 711 582 route key;
#X obj 716 630 route 1;
#X obj 709 558 route list;
#X obj 718 656 tgl 15 0 empty empty empty 17 7 0 10 -262144 -1 -1 0
1;
#X obj 713 691 route 0 1;
#X msg 746 737 \; rb-RecControl start \;;
#X msg 614 736 \; rb-RecControl stop \;;
#X obj 713 606 route \$3;
#X obj 414 651 r rb-recordingDidStart;
#X obj 414 672 t b;
#X obj 414 693 delay \$2;
#X msg 414 714 \; rb-RecControl stop \;;
#X obj 275 665 r rb-recordingDidStop;
#X obj 275 686 t b;
#X msg 275 707 stop;
#X obj 67 670 r quitting;
#X obj 67 691 t b;
#X msg 67 712 \; rb-RecControl stop \;;
#X text 62 646 save if quitting patch!;
#X text 576 44 RecBSide \; v 0.2 Copyright 2024 Michael Spears \; <mws@samesimilar.com>
Internal Recording For Organelle \; With HID Control \; Recordings
are stored in \$1 \; Max recording time (ms) is \$2 \; Recording start
key is \$3 \; \; See RecBSideConfig patch to select HID device.;
#X connect 0 0 2 0;
#X connect 1 0 2 1;
#X connect 4 0 21 0;
#X connect 4 1 16 0;
#X connect 5 0 2 0;
#X connect 6 0 2 0;
#X connect 7 0 2 0;
#X connect 8 0 3 0;
#X connect 8 0 5 0;
#X connect 9 0 11 0;
#X connect 10 0 9 0;
#X connect 11 0 14 0;
#X connect 12 0 9 0;
#X connect 12 0 13 0;
#X connect 13 0 11 0;
#X connect 14 0 20 0;
#X connect 14 1 19 0;
#X connect 15 0 37 0;
#X connect 16 0 24 0;
#X connect 16 1 7 0;
#X connect 17 0 15 0;
#X connect 18 0 15 0;
#X connect 21 0 25 0;
#X connect 21 1 6 0;
#X connect 21 2 8 0;
#X connect 26 0 4 0;
#X connect 27 0 17 0;
#X connect 28 0 18 0;
#X connect 29 0 33 0;
#X connect 30 0 34 0;
#X connect 31 0 10 0;
#X connect 32 0 12 0;
#X connect 33 0 22 0;
#X connect 34 0 23 0;
#X connect 37 0 36 0;
#X connect 39 0 42 0;
#X connect 40 0 47 0;
#X connect 41 0 43 0;
#X connect 42 0 40 0;
#X connect 43 0 44 0;
#X connect 44 0 46 0;
#X connect 44 1 45 0;
#X connect 47 0 41 0;
#X connect 48 0 49 0;
#X connect 49 0 50 0;
#X connect 50 0 51 0;
#X connect 52 0 53 0;
#X connect 53 0 54 0;
#X connect 54 0 50 0;
#X connect 55 0 56 0;
#X connect 56 0 57 0;
