#N canvas 364 77 1249 787 10;
#X obj 411 185 catch~ rbOutL;
#X obj 470 161 catch~ rbOutR;
#X obj 417 252 writesf~ 2;
#X obj 134 304 print;
#X obj 132 73 route start stop;
#X msg 128 323 open \$1;
#X msg 106 258 start;
#X msg 265 130 stop;
#X obj 134 283 dtfilename \$1;
#X obj 781 313 metro 500;
#X obj 780 289 bng 15 250 50 0 empty empty empty 17 7 0 10 -262144
-1 -1;
#X obj 781 348 tgl 15 0 empty empty empty 17 7 0 10 -262144 -1 -1 0
1;
#X msg 832 280 stop;
#X msg 883 297 0;
#X obj 797 399 route 0 1;
#X obj 252 512 delay \$2;
#N canvas 206 140 1213 816 setupHid 0;
#X obj 421 335 hid, f 14;
#X obj 77 36 loadbang;
#X msg 81 311 grab;
#X obj 80 288 delay 500;
#X obj 424 368 route key;
#X obj 442 387 print;
#X obj 389 296 f 1;
#X obj 419 439 route 1;
#X obj 417 461 bng 15 250 50 0 empty empty empty 17 7 0 10 -262144
-1 -1;
#X obj 421 488 tgl 15 0 empty empty empty 17 7 0 10 -262144 -1 -1 0
1;
#X obj 420 510 route 0 1;
#X msg 428 537 start;
#X msg 352 537 stop;
#X obj 421 272 symbol noname;
#X msg 424 297 open \$1;
#X obj 75 77 t b b b b, f 17;
#X obj 836 190 symbol \$1;
#X obj 846 290 textfile;
#X obj 705 160 t b b b, f 21;
#X msg 763 187 rewind;
#X obj 706 187 until;
#X obj 52 34 bng 15 250 50 0 empty empty empty 17 7 0 10 -262144 -1
-1;
#X obj 838 233 pack s;
#X msg 842 256 read \$1 cr;
#X obj 899 349 route rbDevInputId;
#X obj 903 381 symbol;
#X msg 836 211 \$1/recbside-config.txt;
#X msg 278 487 0;
#X text 703 59 read recbside-config.txt configuration file \; (there
is just one option to configure now);
#X text 708 99 The configuration file is created by the RecBsideConfig
patch., f 43;
#X text 767 384 more options can be routed from here in the future
, f 15;
#X text 403 207 open the desginated (usb-"qwerty") keyboard device
, f 38;
#X obj 419 414 route \$3;
#X text 481 404 select recording toggle key, f 15;
#X text 461 457 1 == key down;
#X text 61 348 The grab message reserves this device for our patch.
, f 25;
#X obj 278 466 r \$0-autoStop;
#X obj 890 444 s \$0-rbDevInputId;
#X obj 488 250 r \$0-rbDevInputId;
#X obj 416 563 s rb-RecControl;
#X connect 0 0 4 0;
#X connect 1 0 15 0;
#X connect 2 0 0 0;
#X connect 3 0 2 0;
#X connect 4 0 5 0;
#X connect 4 0 32 0;
#X connect 6 0 0 0;
#X connect 7 0 8 0;
#X connect 8 0 9 0;
#X connect 9 0 10 0;
#X connect 10 0 12 0;
#X connect 10 1 11 0;
#X connect 11 0 39 0;
#X connect 12 0 39 0;
#X connect 13 0 14 0;
#X connect 14 0 0 0;
#X connect 15 0 3 0;
#X connect 15 1 6 0;
#X connect 15 2 13 0;
#X connect 15 3 18 0;
#X connect 16 0 26 0;
#X connect 17 0 24 0;
#X connect 17 1 20 1;
#X connect 18 0 20 0;
#X connect 18 1 19 0;
#X connect 18 2 16 0;
#X connect 19 0 17 0;
#X connect 20 0 17 0;
#X connect 21 0 15 0;
#X connect 22 0 23 0;
#X connect 23 0 17 0;
#X connect 24 0 25 0;
#X connect 25 0 37 0;
#X connect 26 0 22 0;
#X connect 27 0 9 0;
#X connect 32 0 7 0;
#X connect 36 0 27 0;
#X connect 38 0 13 1;
#X restore 351 43 pd setupHid;
#X obj 220 98 t b b, f 9;
#X msg 147 471 stop;
#X obj 274 475 t b;
#X msg 741 430 \; oscOut /oled/gFilledCircle 3 124 12 2 1;
#X msg 742 468 \; oscOut /oled/gFilledCircle 3 124 12 2 0;
#X obj 113 168 t b b b;
#X obj 436 427 print;
#X obj 434 553 print;
#X text 576 44 RecBSide \; v 0.1 Copyright 2024 Michael Spears \; <mws@samesimilar.com>
Internal Recording For Organelle \; With HID Control \; Recordings
are stored in \$1 \; Max recording time (ms) is \$2 \; Recording start
key is \$3 \; \; See RecBSideConfig patch to select HID device.;
#X obj 219 156 s rb-recordingDidStop;
#X obj 106 204 s rb-recordingDidStart;
#X obj 133 43 r rb-RecControl;
#X obj 114 450 r rb-recordingDidStop;
#X obj 276 448 r rb-recordingDidStart;
#X obj 436 385 r rb-recordingDidStart;
#X obj 433 500 r rb-recordingDidStop;
#X obj 689 255 r rb-recordingDidStart;
#X obj 832 255 r rb-recordingDidStop;
#X msg 436 406 !!Recording Started!!;
#X msg 432 526 !!Recording Ended!!;
#X text 683 227 flashing indicator;
#X obj 250 572 s \$0-autoStop;
#X obj 256 539 t b;
#X connect 0 0 2 0;
#X connect 1 0 2 1;
#X connect 4 0 22 0;
#X connect 4 1 17 0;
#X connect 5 0 2 0;
#X connect 6 0 2 0;
#X connect 7 0 2 0;
#X connect 8 0 3 0;
#X connect 8 0 5 0;
#X connect 9 0 11 0;
#X connect 10 0 9 0;
#X connect 11 0 14 0;
#X connect 12 0 9 0;
#X connect 12 0 13 0;
#X connect 13 0 11 0;
#X connect 14 0 21 0;
#X connect 14 1 20 0;
#X connect 15 0 39 0;
#X connect 17 0 26 0;
#X connect 17 1 7 0;
#X connect 18 0 15 0;
#X connect 19 0 15 0;
#X connect 22 0 27 0;
#X connect 22 1 6 0;
#X connect 22 2 8 0;
#X connect 28 0 4 0;
#X connect 29 0 18 0;
#X connect 30 0 19 0;
#X connect 31 0 35 0;
#X connect 32 0 36 0;
#X connect 33 0 10 0;
#X connect 34 0 12 0;
#X connect 35 0 23 0;
#X connect 36 0 24 0;
#X connect 39 0 38 0;
